<svg width="48" height="48" viewBox="0 0 48 48" fill="none" xmlns="http://www.w3.org/2000/svg">
<path d="M24 4C12.954 4 4 12.954 4 24C4 35.046 12.954 44 24 44C35.046 44 44 35.046 44 24C44 12.954 35.046 4 24 4Z" stroke="#FA531E" stroke-width="1.5" stroke-linecap="round" stroke-linejoin="round"/>
<path d="M16 42.336V28L24 14L32 28V42.336" stroke="#FA531E" stroke-width="1.5" stroke-linecap="round" stroke-linejoin="round"/>
<path d="M16 28C16 28 18.254 30 20 30C21.746 30 24 28 24 28C24 28 26.254 30 28 30C29.746 30 32 28 32 28" stroke="#FA531E" stroke-width="1.5" stroke-linecap="round" stroke-linejoin="round"/>
</svg>
